{
	"asset":{
		"generator":"Khronos glTF Blender I/O v4.1.62",
		"version":"2.0"
	},
	"scene":0,
	"scenes":[
		{
			"name":"Scene",
			"nodes":[
				0,
				1,
				2,
				3
			]
		}
	],
	"nodes":[
		{
			"mesh":0,
			"name":"Plane.002",
			"rotation":[
				0.70710688829422,
				0,
				0,
				0.7071066498756409
			],
			"scale":[
				0.0625,
				0.0625000074505806,
				0.0625000074505806
			]
		},
		{
			"mesh":1,
			"name":"Arnold_Schwarzenegger_1.002",
			"scale":[
				0.0625,
				0.0625,
				0.0625
			],
			"translation":[
				0,
				0.017208456993103027,
				0
			]
		},
		{
			"mesh":2,
			"name":"Arnold_Schwarzenegger_1.003",
			"rotation":[
				0.70710688829422,
				0,
				0,
				0.7071066498756409
			],
			"translation":[
				-2.74453067779541,
				118.73252868652344,
				-1.371284008026123
			]
		},
		{
			"mesh":3,
			"name":"Arnold_Schwarzenegger_1.004",
			"rotation":[
				0.70710688829422,
				0,
				0,
				0.7071066498756409
			],
			"translation":[
				-1.4915781021118164,
				118.93638610839844,
				-5.102052211761475
			]
		}
	],
	"materials":[
		{
			"doubleSided":true,
			"name":"metal",
			"pbrMetallicRoughness":{
				"baseColorTexture":{
					"index":0
				},
				"roughnessFactor":0.4000000059604645
			}
		},
		{
			"doubleSided":true,
			"name":"Material.001",
			"pbrMetallicRoughness":{
				"baseColorFactor":[
					0.868267834186554,
					1,
					0.9525682330131531,
					1
				],
				"metallicFactor":0,
				"roughnessFactor":0.5
			}
		},
		{
			"doubleSided":true,
			"name":"hair",
			"pbrMetallicRoughness":{
				"baseColorFactor":[
					0.13013599812984467,
					0.05612900108098984,
					0.015208999626338482,
					1
				],
				"metallicFactor":0,
				"roughnessFactor":0.5
			}
		},
		{
			"doubleSided":true,
			"name":"Material.002",
			"pbrMetallicRoughness":{
				"baseColorFactor":[
					1,
					0.7083770036697388,
					0.41254299879074097,
					1
				],
				"metallicFactor":0,
				"roughnessFactor":0.5
			}
		},
		{
			"doubleSided":true,
			"name":"Material.003",
			"pbrMetallicRoughness":{
				"baseColorFactor":[
					0.01707400009036064,
					0.01707400009036064,
					0.01707400009036064,
					1
				],
				"metallicFactor":0,
				"roughnessFactor":0.5
			}
		},
		{
			"doubleSided":true,
			"name":"Material.004",
			"pbrMetallicRoughness":{
				"baseColorFactor":[
					0,
					0,
					0,
					1
				],
				"metallicFactor":0,
				"roughnessFactor":0.5
			}
		}
	],
	"meshes":[
		{
			"name":"Plane.002",
			"primitives":[
				{
					"attributes":{
						"POSITION":0,
						"NORMAL":1,
						"TEXCOORD_0":2
					},
					"indices":3,
					"material":0
				},
				{
					"attributes":{
						"POSITION":4,
						"NORMAL":5,
						"TEXCOORD_0":6
					},
					"indices":7,
					"material":1
				}
			]
		},
		{
			"name":"Arnold_Schwarzenegger_1.002",
			"primitives":[
				{
					"attributes":{
						"POSITION":8,
						"NORMAL":9,
						"TEXCOORD_0":10
					},
					"indices":11,
					"material":2
				},
				{
					"attributes":{
						"POSITION":12,
						"NORMAL":13,
						"TEXCOORD_0":14
					},
					"indices":15,
					"material":3
				},
				{
					"attributes":{
						"POSITION":16,
						"NORMAL":17,
						"TEXCOORD_0":18
					},
					"indices":19,
					"material":4
				}
			]
		},
		{
			"name":"Arnold_Schwarzenegger_1.003",
			"primitives":[
				{
					"attributes":{
						"POSITION":20,
						"NORMAL":21,
						"TEXCOORD_0":22
					},
					"indices":23,
					"material":5
				}
			]
		},
		{
			"name":"Arnold_Schwarzenegger_1.004",
			"primitives":[
				{
					"attributes":{
						"POSITION":24,
						"NORMAL":25,
						"TEXCOORD_0":26
					},
					"indices":27,
					"material":2
				}
			]
		}
	],
	"textures":[
		{
			"sampler":0,
			"source":0
		}
	],
	"images":[
		{
			"mimeType":"image/jpeg",
			"name":"wood_texture2",
			"uri":"wood_texture2.jpg"
		}
	],
	"accessors":[
		{
			"bufferView":0,
			"componentType":5126,
			"count":644,
			"max":[
				27.5,
				34.56965637207031,
				15.673896789550781
			],
			"min":[
				-27.5,
				-34.58770751953125,
				-17.955886840820312
			],
			"type":"VEC3"
		},
		{
			"bufferView":1,
			"componentType":5126,
			"count":644,
			"type":"VEC3"
		},
		{
			"bufferView":2,
			"componentType":5126,
			"count":644,
			"type":"VEC2"
		},
		{
			"bufferView":3,
			"componentType":5123,
			"count":3036,
			"type":"SCALAR"
		},
		{
			"bufferView":4,
			"componentType":5126,
			"count":843,
			"max":[
				-21.722475051879883,
				20.438270568847656,
				4.123145580291748
			],
			"min":[
				-24.24361801147461,
				-18.583951950073242,
				-4.123143196105957
			],
			"type":"VEC3"
		},
		{
			"bufferView":5,
			"componentType":5126,
			"count":843,
			"type":"VEC3"
		},
		{
			"bufferView":6,
			"componentType":5126,
			"count":843,
			"type":"VEC2"
		},
		{
			"bufferView":7,
			"componentType":5123,
			"count":1557,
			"type":"SCALAR"
		},
		{
			"bufferView":8,
			"componentType":5126,
			"count":90609,
			"max":[
				8.19806957244873,
				124.83152770996094,
				0.611945629119873
			],
			"min":[
				-4.419529914855957,
				109.53596496582031,
				-11.397188186645508
			],
			"type":"VEC3"
		},
		{
			"bufferView":9,
			"componentType":5126,
			"count":90609,
			"type":"VEC3"
		},
		{
			"bufferView":10,
			"componentType":5126,
			"count":90609,
			"type":"VEC2"
		},
		{
			"bufferView":11,
			"componentType":5125,
			"count":120657,
			"type":"SCALAR"
		},
		{
			"bufferView":12,
			"componentType":5126,
			"count":809264,
			"max":[
				12.42090892791748,
				128.82664489746094,
				15.742706298828125
			],
			"min":[
				-14.349257469177246,
				16.795989990234375,
				-34.156097412109375
			],
			"type":"VEC3"
		},
		{
			"bufferView":13,
			"componentType":5126,
			"count":809264,
			"type":"VEC3"
		},
		{
			"bufferView":14,
			"componentType":5126,
			"count":809264,
			"type":"VEC2"
		},
		{
			"bufferView":15,
			"componentType":5125,
			"count":1338120,
			"type":"SCALAR"
		},
		{
			"bufferView":16,
			"componentType":5126,
			"count":158568,
			"max":[
				5.3480224609375,
				82.2470703125,
				5.77112340927124
			],
			"min":[
				-12.73396110534668,
				67.63829040527344,
				-15.981452941894531
			],
			"type":"VEC3"
		},
		{
			"bufferView":17,
			"componentType":5126,
			"count":158568,
			"type":"VEC3"
		},
		{
			"bufferView":18,
			"componentType":5126,
			"count":158568,
			"type":"VEC2"
		},
		{
			"bufferView":19,
			"componentType":5125,
			"count":246276,
			"type":"SCALAR"
		},
		{
			"bufferView":20,
			"componentType":5126,
			"count":55,
			"max":[
				1.6293067932128906,
				1.8378009796142578,
				0.514617919921875
			],
			"min":[
				-1.330780029296875,
				-1.5980958938598633,
				-0.552032470703125
			],
			"type":"VEC3"
		},
		{
			"bufferView":21,
			"componentType":5126,
			"count":55,
			"type":"VEC3"
		},
		{
			"bufferView":22,
			"componentType":5126,
			"count":55,
			"type":"VEC2"
		},
		{
			"bufferView":23,
			"componentType":5123,
			"count":72,
			"type":"SCALAR"
		},
		{
			"bufferView":24,
			"componentType":5126,
			"count":1578,
			"max":[
				8.846355438232422,
				4.88864278793335,
				7.231864929199219
			],
			"min":[
				-2.6309356689453125,
				-4.269152641296387,
				-4.7093048095703125
			],
			"type":"VEC3"
		},
		{
			"bufferView":25,
			"componentType":5126,
			"count":1578,
			"type":"VEC3"
		},
		{
			"bufferView":26,
			"componentType":5126,
			"count":1578,
			"type":"VEC2"
		},
		{
			"bufferView":27,
			"componentType":5123,
			"count":2331,
			"type":"SCALAR"
		}
	],
	"bufferViews":[
		{
			"buffer":0,
			"byteLength":7728,
			"byteOffset":0,
			"target":34962
		},
		{
			"buffer":0,
			"byteLength":7728,
			"byteOffset":7728,
			"target":34962
		},
		{
			"buffer":0,
			"byteLength":5152,
			"byteOffset":15456,
			"target":34962
		},
		{
			"buffer":0,
			"byteLength":6072,
			"byteOffset":20608,
			"target":34963
		},
		{
			"buffer":0,
			"byteLength":10116,
			"byteOffset":26680,
			"target":34962
		},
		{
			"buffer":0,
			"byteLength":10116,
			"byteOffset":36796,
			"target":34962
		},
		{
			"buffer":0,
			"byteLength":6744,
			"byteOffset":46912,
			"target":34962
		},
		{
			"buffer":0,
			"byteLength":3114,
			"byteOffset":53656,
			"target":34963
		},
		{
			"buffer":0,
			"byteLength":1087308,
			"byteOffset":56772,
			"target":34962
		},
		{
			"buffer":0,
			"byteLength":1087308,
			"byteOffset":1144080,
			"target":34962
		},
		{
			"buffer":0,
			"byteLength":724872,
			"byteOffset":2231388,
			"target":34962
		},
		{
			"buffer":0,
			"byteLength":482628,
			"byteOffset":2956260,
			"target":34963
		},
		{
			"buffer":0,
			"byteLength":9711168,
			"byteOffset":3438888,
			"target":34962
		},
		{
			"buffer":0,
			"byteLength":9711168,
			"byteOffset":13150056,
			"target":34962
		},
		{
			"buffer":0,
			"byteLength":6474112,
			"byteOffset":22861224,
			"target":34962
		},
		{
			"buffer":0,
			"byteLength":5352480,
			"byteOffset":29335336,
			"target":34963
		},
		{
			"buffer":0,
			"byteLength":1902816,
			"byteOffset":34687816,
			"target":34962
		},
		{
			"buffer":0,
			"byteLength":1902816,
			"byteOffset":36590632,
			"target":34962
		},
		{
			"buffer":0,
			"byteLength":1268544,
			"byteOffset":38493448,
			"target":34962
		},
		{
			"buffer":0,
			"byteLength":985104,
			"byteOffset":39761992,
			"target":34963
		},
		{
			"buffer":0,
			"byteLength":660,
			"byteOffset":40747096,
			"target":34962
		},
		{
			"buffer":0,
			"byteLength":660,
			"byteOffset":40747756,
			"target":34962
		},
		{
			"buffer":0,
			"byteLength":440,
			"byteOffset":40748416,
			"target":34962
		},
		{
			"buffer":0,
			"byteLength":144,
			"byteOffset":40748856,
			"target":34963
		},
		{
			"buffer":0,
			"byteLength":18936,
			"byteOffset":40749000,
			"target":34962
		},
		{
			"buffer":0,
			"byteLength":18936,
			"byteOffset":40767936,
			"target":34962
		},
		{
			"buffer":0,
			"byteLength":12624,
			"byteOffset":40786872,
			"target":34962
		},
		{
			"buffer":0,
			"byteLength":4662,
			"byteOffset":40799496,
			"target":34963
		}
	],
	"samplers":[
		{
			"magFilter":9729,
			"minFilter":9987
		}
	],
	"buffers":[
		{
			"byteLength":40804160,
			"uri":"arnold_small_size.bin"
		}
	]
}
